<svg width="26" height="20" viewBox="0 0 26 20" fill="none" xmlns="http://www.w3.org/2000/svg">
<path d="M21.6641 1.65906C20.043 0.878258 18.3325 0.320987 16.5751 0.00113909C16.5592 -0.00167518 16.5428 0.000755409 16.5283 0.00809674C16.5137 0.0154381 16.5017 0.0273296 16.4938 0.0421361C16.2735 0.452106 16.0298 0.988347 15.8595 1.40816C13.9651 1.10643 12.0383 1.10643 10.1439 1.40816C9.95393 0.940495 9.73901 0.484433 9.50017 0.0421361C9.49216 0.0274917 9.4801 0.0157372 9.4656 0.00841949C9.4511 0.00110175 9.43482 -0.00143631 9.41892 0.00113909C7.66113 0.319276 5.95021 0.876835 4.32991 1.65906C4.31605 1.66461 4.30445 1.67504 4.2971 1.68858C1.05651 6.77057 0.167455 11.7279 0.603388 16.623C0.60495 16.6459 0.619013 16.6689 0.6362 16.6836C2.52325 18.1507 4.63396 19.2708 6.87832 19.9962C6.89417 20.0014 6.9112 20.0013 6.92693 19.9957C6.94267 19.99 6.95629 19.9793 6.96582 19.965C7.44707 19.2763 7.87519 18.5498 8.24393 17.7856C8.25162 17.7699 8.25425 17.752 8.25143 17.7345C8.24862 17.7171 8.24051 17.7011 8.22831 17.6889C8.22023 17.6809 8.21065 17.6747 8.20018 17.6708C7.527 17.3993 6.87503 17.0731 6.2502 16.6951C6.23275 16.6847 6.21977 16.6677 6.21395 16.6476C6.20814 16.6274 6.20993 16.6057 6.21895 16.5869C6.22427 16.5747 6.23231 16.564 6.24239 16.5557C6.37364 16.4524 6.50489 16.3442 6.62989 16.236C6.64093 16.2266 6.65418 16.2206 6.66821 16.2186C6.68225 16.2166 6.69655 16.2186 6.70957 16.2245C10.8017 18.1858 15.2314 18.1858 19.2735 16.2245C19.287 16.2183 19.3018 16.2162 19.3164 16.2182C19.331 16.2202 19.3448 16.2264 19.3563 16.236C19.4813 16.3442 19.6126 16.4524 19.7438 16.5557C19.7544 16.5639 19.763 16.5747 19.7687 16.5872C19.7744 16.5996 19.777 16.6134 19.7764 16.6272C19.7758 16.641 19.7719 16.6544 19.7651 16.6663C19.7584 16.6781 19.7489 16.688 19.7376 16.6951C19.1142 17.0765 18.4614 17.4024 17.786 17.6692C17.7752 17.6733 17.7655 17.6798 17.7574 17.6883C17.7493 17.6968 17.743 17.7071 17.7391 17.7184C17.7355 17.7294 17.7341 17.741 17.7349 17.7525C17.7357 17.7641 17.7387 17.7754 17.7438 17.7856C18.1188 18.5482 18.5485 19.2763 19.0204 19.965C19.0299 19.9793 19.0435 19.99 19.0593 19.9957C19.075 20.0013 19.092 20.0014 19.1079 19.9962C21.356 19.2731 23.4701 18.1528 25.3594 16.6836C25.3688 16.6768 25.3767 16.6677 25.3824 16.6572C25.3881 16.6467 25.3914 16.635 25.3922 16.623C25.9141 10.9637 24.5188 6.04738 21.6954 1.69022C21.6925 1.68302 21.6883 1.67653 21.6829 1.67116C21.6775 1.66579 21.6711 1.66167 21.6641 1.65906ZM8.85486 13.6417C7.62206 13.6417 6.60801 12.4544 6.60801 10.9982C6.60801 9.54032 7.60331 8.35305 8.85486 8.35305C10.1158 8.35305 11.1205 9.55016 11.1017 10.9982C11.1017 12.4544 10.1064 13.6417 8.85486 13.6417ZM17.161 13.6417C15.9298 13.6417 14.9142 12.4544 14.9142 10.9982C14.9142 9.54032 15.9095 8.35305 17.161 8.35305C18.422 8.35305 19.4282 9.55016 19.4079 10.9982C19.4079 12.4544 18.422 13.6417 17.161 13.6417Z" fill="#ABB2BF"/>
</svg>
